<svg xmlns="http://www.w3.org/2000/svg" xmlns:xlink="http://www.w3.org/1999/xlink" width="345" zoomAndPan="magnify" viewBox="0 0 258.75 56.249996" height="75" preserveAspectRatio="xMidYMid meet" version="1.0"><defs><g/><clipPath id="53c5223584"><path d="M 3.332031 9.441406 L 31.457031 9.441406 L 31.457031 44.226562 L 3.332031 44.226562 Z M 3.332031 9.441406 " clip-rule="nonzero"/></clipPath></defs><path fill="#5271ff" d="M 6.648438 39.984375 C 6.648438 40.445312 7.027344 40.824219 7.488281 40.824219 L 27.492188 40.824219 C 27.957031 40.824219 28.332031 40.445312 28.332031 39.984375 C 28.332031 39.519531 27.957031 39.144531 27.492188 39.144531 L 7.488281 39.144531 C 7.027344 39.144531 6.648438 39.519531 6.648438 39.984375 Z M 6.648438 39.984375 " fill-opacity="1" fill-rule="nonzero"/><g clip-path="url(#53c5223584)"><path fill="#5271ff" d="M 30.433594 9.445312 L 7.488281 9.445312 C 5.203125 9.445312 3.34375 11.304688 3.34375 13.59375 L 3.34375 39.984375 C 3.34375 42.269531 5.203125 44.128906 7.488281 44.128906 L 30.433594 44.128906 C 30.898438 44.128906 31.273438 43.753906 31.273438 43.289062 L 31.273438 10.285156 C 31.273438 9.820312 30.898438 9.445312 30.433594 9.445312 Z M 7.488281 11.125 L 29.59375 11.125 L 29.59375 35.835938 L 7.488281 35.835938 C 6.566406 35.835938 5.714844 36.144531 5.023438 36.65625 L 5.023438 13.59375 C 5.023438 12.230469 6.128906 11.125 7.488281 11.125 Z M 29.59375 42.449219 L 7.488281 42.449219 C 6.128906 42.449219 5.023438 41.34375 5.023438 39.984375 C 5.023438 38.621094 6.128906 37.515625 7.488281 37.515625 L 29.59375 37.515625 Z M 29.59375 42.449219 " fill-opacity="1" fill-rule="nonzero"/></g><path fill="#5271ff" d="M 12.058594 27.148438 C 12.222656 27.3125 12.4375 27.394531 12.652344 27.394531 C 12.867188 27.394531 13.082031 27.3125 13.246094 27.148438 C 13.574219 26.820312 13.574219 26.289062 13.246094 25.960938 L 10.761719 23.480469 L 13.246094 20.996094 C 13.574219 20.667969 13.574219 20.136719 13.246094 19.808594 C 12.917969 19.480469 12.386719 19.480469 12.058594 19.808594 L 8.980469 22.886719 C 8.824219 23.042969 8.734375 23.257812 8.734375 23.480469 C 8.734375 23.703125 8.824219 23.914062 8.980469 24.074219 Z M 12.058594 27.148438 " fill-opacity="1" fill-rule="nonzero"/><path fill="#5271ff" d="M 21.371094 27.148438 C 21.535156 27.3125 21.75 27.394531 21.964844 27.394531 C 22.179688 27.394531 22.394531 27.3125 22.558594 27.148438 L 25.636719 24.074219 C 25.964844 23.746094 25.964844 23.214844 25.636719 22.886719 L 22.558594 19.808594 C 22.230469 19.480469 21.699219 19.480469 21.371094 19.808594 C 21.042969 20.136719 21.042969 20.667969 21.371094 20.996094 L 23.855469 23.480469 L 21.371094 25.960938 C 21.042969 26.289062 21.042969 26.820312 21.371094 27.148438 Z M 21.371094 27.148438 " fill-opacity="1" fill-rule="nonzero"/><path fill="#5271ff" d="M 14.179688 30.84375 C 14.285156 30.890625 14.398438 30.914062 14.507812 30.914062 C 14.832031 30.914062 15.144531 30.71875 15.28125 30.398438 L 20.882812 17.214844 C 21.066406 16.789062 20.867188 16.292969 20.4375 16.113281 C 20.011719 15.929688 19.519531 16.128906 19.335938 16.558594 L 13.734375 29.742188 C 13.550781 30.171875 13.75 30.664062 14.179688 30.84375 Z M 14.179688 30.84375 " fill-opacity="1" fill-rule="nonzero"/><g fill="#5271ff" fill-opacity="1"><g transform="translate(33.775549, 43.488558)"><g><path d="M 19.515625 -6.65625 C 20.640625 -6.65625 21.726562 -6.820312 22.78125 -7.15625 C 23.84375 -7.5 24.625 -7.828125 25.125 -8.140625 L 25.859375 -8.640625 L 28.984375 -2.390625 C 28.878906 -2.304688 28.734375 -2.195312 28.546875 -2.0625 C 28.367188 -1.9375 27.945312 -1.695312 27.28125 -1.34375 C 26.625 -1 25.914062 -0.695312 25.15625 -0.4375 C 24.394531 -0.175781 23.398438 0.0546875 22.171875 0.265625 C 20.953125 0.484375 19.691406 0.59375 18.390625 0.59375 C 15.390625 0.59375 12.546875 -0.140625 9.859375 -1.609375 C 7.171875 -3.085938 5.003906 -5.117188 3.359375 -7.703125 C 1.722656 -10.285156 0.90625 -13.078125 0.90625 -16.078125 C 0.90625 -18.347656 1.382812 -20.523438 2.34375 -22.609375 C 3.3125 -24.703125 4.597656 -26.488281 6.203125 -27.96875 C 7.804688 -29.457031 9.675781 -30.644531 11.8125 -31.53125 C 13.957031 -32.414062 16.148438 -32.859375 18.390625 -32.859375 C 20.472656 -32.859375 22.394531 -32.609375 24.15625 -32.109375 C 25.914062 -31.617188 27.160156 -31.128906 27.890625 -30.640625 L 28.984375 -29.890625 L 25.859375 -23.625 C 25.679688 -23.78125 25.410156 -23.96875 25.046875 -24.1875 C 24.679688 -24.414062 23.945312 -24.710938 22.84375 -25.078125 C 21.75 -25.441406 20.640625 -25.625 19.515625 -25.625 C 17.742188 -25.625 16.15625 -25.335938 14.75 -24.765625 C 13.34375 -24.191406 12.226562 -23.4375 11.40625 -22.5 C 10.582031 -21.5625 9.953125 -20.550781 9.515625 -19.46875 C 9.085938 -18.382812 8.875 -17.28125 8.875 -16.15625 C 8.875 -13.707031 9.789062 -11.507812 11.625 -9.5625 C 13.46875 -7.625 16.097656 -6.65625 19.515625 -6.65625 Z M 19.515625 -6.65625 "/></g></g></g><g fill="#5271ff" fill-opacity="1"><g transform="translate(60.769716, 43.488558)"><g><path d="M 4.25 -2.375 C 2.019531 -4.363281 0.90625 -6.910156 0.90625 -10.015625 C 0.90625 -13.117188 2.0625 -15.664062 4.375 -17.65625 C 6.695312 -19.65625 9.566406 -20.65625 12.984375 -20.65625 C 16.347656 -20.65625 19.1875 -19.648438 21.5 -17.640625 C 23.8125 -15.628906 24.96875 -13.085938 24.96875 -10.015625 C 24.96875 -6.941406 23.835938 -4.40625 21.578125 -2.40625 C 19.316406 -0.40625 16.453125 0.59375 12.984375 0.59375 C 9.390625 0.59375 6.476562 -0.394531 4.25 -2.375 Z M 9.59375 -13.421875 C 8.695312 -12.535156 8.25 -11.398438 8.25 -10.015625 C 8.25 -8.628906 8.679688 -7.5 9.546875 -6.625 C 10.410156 -5.757812 11.546875 -5.328125 12.953125 -5.328125 C 14.304688 -5.328125 15.421875 -5.769531 16.296875 -6.65625 C 17.171875 -7.539062 17.609375 -8.660156 17.609375 -10.015625 C 17.609375 -11.398438 17.15625 -12.535156 16.25 -13.421875 C 15.351562 -14.304688 14.253906 -14.75 12.953125 -14.75 C 11.617188 -14.75 10.5 -14.304688 9.59375 -13.421875 Z M 9.59375 -13.421875 "/></g></g></g><g fill="#5271ff" fill-opacity="1"><g transform="translate(84.164598, 43.488558)"><g><path d="M 3.71875 -2.484375 C 1.84375 -4.535156 0.90625 -7.046875 0.90625 -10.015625 C 0.90625 -12.984375 1.84375 -15.5 3.71875 -17.5625 C 5.59375 -19.625 7.976562 -20.65625 10.875 -20.65625 C 13.539062 -20.65625 15.734375 -19.820312 17.453125 -18.15625 L 17.453125 -33.640625 L 24.375 -33.640625 L 24.375 0 L 17.53125 0 L 17.53125 -2.265625 L 17.453125 -2.265625 C 15.734375 -0.359375 13.539062 0.59375 10.875 0.59375 C 7.976562 0.59375 5.59375 -0.429688 3.71875 -2.484375 Z M 9.59375 -13.421875 C 8.695312 -12.535156 8.25 -11.398438 8.25 -10.015625 C 8.25 -8.628906 8.679688 -7.5 9.546875 -6.625 C 10.410156 -5.757812 11.546875 -5.328125 12.953125 -5.328125 C 14.304688 -5.328125 15.421875 -5.769531 16.296875 -6.65625 C 17.171875 -7.539062 17.609375 -8.660156 17.609375 -10.015625 C 17.609375 -11.398438 17.15625 -12.535156 16.25 -13.421875 C 15.351562 -14.304688 14.253906 -14.75 12.953125 -14.75 C 11.617188 -14.75 10.5 -14.304688 9.59375 -13.421875 Z M 9.59375 -13.421875 "/></g></g></g><g fill="#5271ff" fill-opacity="1"><g transform="translate(108.420184, 43.488558)"><g><path d="M 22.65625 -9.078125 L 8.09375 -9.078125 C 8.09375 -7.671875 8.550781 -6.628906 9.46875 -5.953125 C 10.382812 -5.273438 11.375 -4.9375 12.4375 -4.9375 C 13.5625 -4.9375 14.445312 -5.082031 15.09375 -5.375 C 15.75 -5.675781 16.492188 -6.269531 17.328125 -7.15625 L 22.34375 -4.65625 C 20.25 -1.15625 16.78125 0.59375 11.9375 0.59375 C 8.90625 0.59375 6.304688 -0.441406 4.140625 -2.515625 C 1.984375 -4.597656 0.90625 -7.097656 0.90625 -10.015625 C 0.90625 -12.929688 1.984375 -15.429688 4.140625 -17.515625 C 6.304688 -19.609375 8.90625 -20.65625 11.9375 -20.65625 C 15.113281 -20.65625 17.695312 -19.734375 19.6875 -17.890625 C 21.6875 -16.054688 22.6875 -13.429688 22.6875 -10.015625 C 22.6875 -9.546875 22.675781 -9.234375 22.65625 -9.078125 Z M 8.296875 -12.90625 L 15.921875 -12.90625 C 15.765625 -13.945312 15.351562 -14.75 14.6875 -15.3125 C 14.019531 -15.875 13.164062 -16.15625 12.125 -16.15625 C 10.976562 -16.15625 10.066406 -15.851562 9.390625 -15.25 C 8.710938 -14.65625 8.347656 -13.875 8.296875 -12.90625 Z M 8.296875 -12.90625 "/></g></g></g><g fill="#5271ff" fill-opacity="1"><g transform="translate(129.545959, 43.488558)"><g/></g></g><g fill="#5271ff" fill-opacity="1"><g transform="translate(137.761267, 43.488558)"><g><path d="M 19.515625 -6.65625 C 20.640625 -6.65625 21.726562 -6.820312 22.78125 -7.15625 C 23.84375 -7.5 24.625 -7.828125 25.125 -8.140625 L 25.859375 -8.640625 L 28.984375 -2.390625 C 28.878906 -2.304688 28.734375 -2.195312 28.546875 -2.0625 C 28.367188 -1.9375 27.945312 -1.695312 27.28125 -1.34375 C 26.625 -1 25.914062 -0.695312 25.15625 -0.4375 C 24.394531 -0.175781 23.398438 0.0546875 22.171875 0.265625 C 20.953125 0.484375 19.691406 0.59375 18.390625 0.59375 C 15.390625 0.59375 12.546875 -0.140625 9.859375 -1.609375 C 7.171875 -3.085938 5.003906 -5.117188 3.359375 -7.703125 C 1.722656 -10.285156 0.90625 -13.078125 0.90625 -16.078125 C 0.90625 -18.347656 1.382812 -20.523438 2.34375 -22.609375 C 3.3125 -24.703125 4.597656 -26.488281 6.203125 -27.96875 C 7.804688 -29.457031 9.675781 -30.644531 11.8125 -31.53125 C 13.957031 -32.414062 16.148438 -32.859375 18.390625 -32.859375 C 20.472656 -32.859375 22.394531 -32.609375 24.15625 -32.109375 C 25.914062 -31.617188 27.160156 -31.128906 27.890625 -30.640625 L 28.984375 -29.890625 L 25.859375 -23.625 C 25.679688 -23.78125 25.410156 -23.96875 25.046875 -24.1875 C 24.679688 -24.414062 23.945312 -24.710938 22.84375 -25.078125 C 21.75 -25.441406 20.640625 -25.625 19.515625 -25.625 C 17.742188 -25.625 16.15625 -25.335938 14.75 -24.765625 C 13.34375 -24.191406 12.226562 -23.4375 11.40625 -22.5 C 10.582031 -21.5625 9.953125 -20.550781 9.515625 -19.46875 C 9.085938 -18.382812 8.875 -17.28125 8.875 -16.15625 C 8.875 -13.707031 9.789062 -11.507812 11.625 -9.5625 C 13.46875 -7.625 16.097656 -6.65625 19.515625 -6.65625 Z M 19.515625 -6.65625 "/></g></g></g><g fill="#5271ff" fill-opacity="1"><g transform="translate(164.755434, 43.488558)"><g><path d="M 3.71875 -2.484375 C 1.84375 -4.535156 0.90625 -7.046875 0.90625 -10.015625 C 0.90625 -12.984375 1.84375 -15.5 3.71875 -17.5625 C 5.59375 -19.625 7.976562 -20.65625 10.875 -20.65625 C 13.539062 -20.65625 15.734375 -19.820312 17.453125 -18.15625 L 17.453125 -20.078125 L 24.375 -20.078125 L 24.375 0 L 17.53125 0 L 17.53125 -2.265625 L 17.453125 -2.265625 C 15.734375 -0.359375 13.539062 0.59375 10.875 0.59375 C 7.976562 0.59375 5.59375 -0.429688 3.71875 -2.484375 Z M 9.59375 -13.421875 C 8.695312 -12.535156 8.25 -11.398438 8.25 -10.015625 C 8.25 -8.628906 8.679688 -7.5 9.546875 -6.625 C 10.410156 -5.757812 11.546875 -5.328125 12.953125 -5.328125 C 14.304688 -5.328125 15.421875 -5.769531 16.296875 -6.65625 C 17.171875 -7.539062 17.609375 -8.660156 17.609375 -10.015625 C 17.609375 -11.398438 17.15625 -12.535156 16.25 -13.421875 C 15.351562 -14.304688 14.253906 -14.75 12.953125 -14.75 C 11.617188 -14.75 10.5 -14.304688 9.59375 -13.421875 Z M 9.59375 -13.421875 "/></g></g></g><g fill="#5271ff" fill-opacity="1"><g transform="translate(189.01102, 43.488558)"><g><path d="M 13.03125 -14.984375 C 11.726562 -14.984375 10.601562 -14.5 9.65625 -13.53125 C 8.71875 -12.570312 8.25 -11.414062 8.25 -10.0625 C 8.25 -8.675781 8.71875 -7.5 9.65625 -6.53125 C 10.601562 -5.570312 11.726562 -5.09375 13.03125 -5.09375 C 13.65625 -5.09375 14.25 -5.171875 14.8125 -5.328125 C 15.375 -5.484375 15.785156 -5.640625 16.046875 -5.796875 L 16.390625 -6.03125 L 18.734375 -1.21875 C 18.554688 -1.082031 18.300781 -0.914062 17.96875 -0.71875 C 17.644531 -0.53125 16.898438 -0.265625 15.734375 0.078125 C 14.578125 0.421875 13.335938 0.59375 12.015625 0.59375 C 9.066406 0.59375 6.476562 -0.441406 4.25 -2.515625 C 2.019531 -4.597656 0.90625 -7.085938 0.90625 -9.984375 C 0.90625 -12.898438 2.019531 -15.40625 4.25 -17.5 C 6.476562 -19.601562 9.066406 -20.65625 12.015625 -20.65625 C 13.335938 -20.65625 14.5625 -20.5 15.6875 -20.1875 C 16.8125 -19.875 17.609375 -19.5625 18.078125 -19.25 L 18.734375 -18.78125 L 16.390625 -14.046875 C 15.535156 -14.671875 14.414062 -14.984375 13.03125 -14.984375 Z M 13.03125 -14.984375 "/></g></g></g><g fill="#5271ff" fill-opacity="1"><g transform="translate(205.755058, 43.488558)"><g><path d="M 2.34375 0 L 2.34375 -33.640625 L 9.265625 -33.640625 L 9.265625 -17.953125 L 9.34375 -17.953125 C 11.144531 -19.753906 13.066406 -20.65625 15.109375 -20.65625 C 16.097656 -20.65625 17.078125 -20.523438 18.046875 -20.265625 C 19.023438 -20.003906 19.960938 -19.597656 20.859375 -19.046875 C 21.765625 -18.503906 22.5 -17.726562 23.0625 -16.71875 C 23.625 -15.71875 23.90625 -14.550781 23.90625 -13.21875 L 23.90625 0 L 16.984375 0 L 16.984375 -11.34375 C 16.984375 -12.382812 16.648438 -13.296875 15.984375 -14.078125 C 15.316406 -14.867188 14.445312 -15.265625 13.375 -15.265625 C 12.332031 -15.265625 11.382812 -14.859375 10.53125 -14.046875 C 9.6875 -13.234375 9.265625 -12.332031 9.265625 -11.34375 L 9.265625 0 Z M 2.34375 0 "/></g></g></g><g fill="#5271ff" fill-opacity="1"><g transform="translate(229.149946, 43.488558)"><g><path d="M 22.65625 -9.078125 L 8.09375 -9.078125 C 8.09375 -7.671875 8.550781 -6.628906 9.46875 -5.953125 C 10.382812 -5.273438 11.375 -4.9375 12.4375 -4.9375 C 13.5625 -4.9375 14.445312 -5.082031 15.09375 -5.375 C 15.75 -5.675781 16.492188 -6.269531 17.328125 -7.15625 L 22.34375 -4.65625 C 20.25 -1.15625 16.78125 0.59375 11.9375 0.59375 C 8.90625 0.59375 6.304688 -0.441406 4.140625 -2.515625 C 1.984375 -4.597656 0.90625 -7.097656 0.90625 -10.015625 C 0.90625 -12.929688 1.984375 -15.429688 4.140625 -17.515625 C 6.304688 -19.609375 8.90625 -20.65625 11.9375 -20.65625 C 15.113281 -20.65625 17.695312 -19.734375 19.6875 -17.890625 C 21.6875 -16.054688 22.6875 -13.429688 22.6875 -10.015625 C 22.6875 -9.546875 22.675781 -9.234375 22.65625 -9.078125 Z M 8.296875 -12.90625 L 15.921875 -12.90625 C 15.765625 -13.945312 15.351562 -14.75 14.6875 -15.3125 C 14.019531 -15.875 13.164062 -16.15625 12.125 -16.15625 C 10.976562 -16.15625 10.066406 -15.851562 9.390625 -15.25 C 8.710938 -14.65625 8.347656 -13.875 8.296875 -12.90625 Z M 8.296875 -12.90625 "/></g></g></g></svg>